<svg id="Layer_1" xmlns="http://www.w3.org/2000/svg" version="1.1" viewBox="0 0 500 500">
  <path fill="#e43f40" d="M384.75,362.12c17.73,0,26.59,0,32.1,5.51,5.51,5.51,5.51,14.37,5.51,32.1v25.07c0,35.45,0,53.18-11.01,64.19-11.01,11.01-28.74,11.01-64.19,11.01h-194.28c-35.45,0-53.18,0-64.19-11.01-11.01-11.01-11.01-28.74-11.01-64.19v-25.07c0-17.73,0-26.59,5.51-32.1,5.51-5.51,14.37-5.51,32.1-5.51h269.49Z"/>
  <path fill="#e43f40" d="M250,72.26c174.86,0,172.35,116.57,172.35,172.35v62.67c0,10.38-8.42,18.8-18.8,18.8H96.45c-10.38,0-18.8-8.42-18.8-18.8v-62.67c0-55.78-2.51-172.35,172.35-172.35ZM250,116.68c-29.42,0-53.27,23.85-53.27,53.27,0,29.42,23.85,53.27,53.27,53.27s53.27-23.85,53.27-53.27-23.85-53.27-53.27-53.27Z"/>
  <path fill="#e43f40" d="M249.95,0c37.73,0,70.76,13.19,79.49,34.66,1.32,3.71,1.97,5.56.8,6.93-1.17,1.38-3.43.97-7.96.15-11.7-2.12-28.26-3.58-42.84-4.01-9.3-.5-19.12-.76-29.44-.76s-20.13.26-29.43.76c-14.65.43-31.27,1.89-43.01,3.94-4.43.77-6.65,1.16-7.81-.21-1.16-1.37-.52-3.19.77-6.83C179.18,13.22,212.23,0,249.95,0Z"/>
</svg>