<svg xmlns="http://www.w3.org/2000/svg" version="1.1" viewBox="0 0 500 500">
  <path d="M251.75,269.86l34.46-33.29,64.25,21.03c42.06,14.02,63.08,39.72,63.08,75.94,0,27.45-10.51,45.56-31.54,68.93l-6.43,7.01,2.34-16.36c9.34-59.58-8.18-85.28-66-103.97l-60.16-19.28ZM165.3,66l175.23,58.41-37.97,36.22-91.12-30.37c-31.54-10.51-42.06-27.45-46.15-63.08v-1.17ZM154.79,362.73l39.72-37.97,74.77,24.53c39.13,12.85,52.57,29.79,48.48,72.43l-162.97-59ZM104.56,193.34c0-11.1,5.84-21.61,15.77-30.37,10.51,15.19,28.62,28.62,57.24,37.97l61.92,20.44-34.46,33.3-60.75-19.86c-28.04-9.34-39.72-23.36-39.72-41.47ZM287.97,500c128.5-85.28,197.43-143.11,197.43-214.37,0-47.31-28.04-73.6-89.95-94.04l-46.73-15.77,127.92-122.66-25.7-27.45-37.97,33.29L233.65,0c-55.49,18.11-125.58,71.26-125.58,124.42,0,5.84.58,11.68,2.34,18.11-46.14,26.28-64.84,50.82-64.84,81.19,0,28.62,15.19,57.24,63.67,73.02l38.55,12.85L14.6,437.5l25.7,27.45,41.47-37.97,206.19,73.01Z" style="fill: #080a0d;"/>
</svg>